<svg xmlns="http://www.w3.org/2000/svg" viewBox="0 0 100 100">
<rect width="100" height="100" rx="20" fill="#14151c"/>
<circle cx="24.0" cy="11.0" r="3.8" fill="#2e261a"/>
<circle cx="37.0" cy="11.0" r="4.7" fill="#f2a641"/>
<circle cx="50.0" cy="11.0" r="4.7" fill="#f2a641"/>
<circle cx="63.0" cy="11.0" r="4.7" fill="#f2a641"/>
<circle cx="76.0" cy="11.0" r="3.8" fill="#2e261a"/>
<circle cx="24.0" cy="24.0" r="4.7" fill="#f2a641"/>
<circle cx="37.0" cy="24.0" r="3.8" fill="#2e261a"/>
<circle cx="50.0" cy="24.0" r="3.8" fill="#2e261a"/>
<circle cx="63.0" cy="24.0" r="3.8" fill="#2e261a"/>
<circle cx="76.0" cy="24.0" r="4.7" fill="#f2a641"/>
<circle cx="24.0" cy="37.0" r="4.7" fill="#f2a641"/>
<circle cx="37.0" cy="37.0" r="3.8" fill="#2e261a"/>
<circle cx="50.0" cy="37.0" r="3.8" fill="#2e261a"/>
<circle cx="63.0" cy="37.0" r="3.8" fill="#2e261a"/>
<circle cx="76.0" cy="37.0" r="3.8" fill="#2e261a"/>
<circle cx="24.0" cy="50.0" r="4.7" fill="#f2a641"/>
<circle cx="37.0" cy="50.0" r="3.8" fill="#2e261a"/>
<circle cx="50.0" cy="50.0" r="3.8" fill="#2e261a"/>
<circle cx="63.0" cy="50.0" r="3.8" fill="#2e261a"/>
<circle cx="76.0" cy="50.0" r="3.8" fill="#2e261a"/>
<circle cx="24.0" cy="63.0" r="4.7" fill="#f2a641"/>
<circle cx="37.0" cy="63.0" r="3.8" fill="#2e261a"/>
<circle cx="50.0" cy="63.0" r="3.8" fill="#2e261a"/>
<circle cx="63.0" cy="63.0" r="3.8" fill="#2e261a"/>
<circle cx="76.0" cy="63.0" r="3.8" fill="#2e261a"/>
<circle cx="24.0" cy="76.0" r="4.7" fill="#f2a641"/>
<circle cx="37.0" cy="76.0" r="3.8" fill="#2e261a"/>
<circle cx="50.0" cy="76.0" r="3.8" fill="#2e261a"/>
<circle cx="63.0" cy="76.0" r="3.8" fill="#2e261a"/>
<circle cx="76.0" cy="76.0" r="4.7" fill="#f2a641"/>
<circle cx="24.0" cy="89.0" r="3.8" fill="#2e261a"/>
<circle cx="37.0" cy="89.0" r="4.7" fill="#f2a641"/>
<circle cx="50.0" cy="89.0" r="4.7" fill="#f2a641"/>
<circle cx="63.0" cy="89.0" r="4.7" fill="#f2a641"/>
<circle cx="76.0" cy="89.0" r="3.8" fill="#2e261a"/>
</svg>
